<mxfile host="app.diagrams.net" modified="2021-08-30T06:42:19.484Z" agent="5.0 (Macintosh)" etag="Fz2zfcpWGRB8RjWYqB0G" version="15.0.3" type="github">
  <diagram id="zdWM20gYpi9angxrLS6M" name="Page-1">
    <mxGraphModel dx="2994" dy="3016" grid="1" gridSize="10" guides="1" tooltips="1" connect="1" arrows="1" fold="1" page="1" pageScale="1" pageWidth="827" pageHeight="1169" math="0" shadow="0">
      <root>
        <mxCell id="0" />
        <mxCell id="1" parent="0" />
        <mxCell id="6PkHTMjWLneeFWRP05JA-1" value="" style="dashed=0;outlineConnect=0;html=1;align=center;labelPosition=center;verticalLabelPosition=bottom;verticalAlign=top;shape=mxgraph.weblogos.github" parent="1" vertex="1">
          <mxGeometry x="341.15" y="880" width="75" height="75" as="geometry" />
        </mxCell>
        <mxCell id="6PkHTMjWLneeFWRP05JA-2" value="" style="pointerEvents=1;shadow=0;dashed=0;html=1;strokeColor=none;fillColor=#DF8C42;labelPosition=center;verticalLabelPosition=bottom;verticalAlign=top;align=center;outlineConnect=0;shape=mxgraph.veeam2.aws_s3;" parent="1" vertex="1">
          <mxGeometry x="346.15" y="450" width="70" height="80" as="geometry" />
        </mxCell>
        <mxCell id="6PkHTMjWLneeFWRP05JA-3" value="" style="shape=image;html=1;verticalAlign=top;verticalLabelPosition=bottom;labelBackgroundColor=#ffffff;imageAspect=0;aspect=fixed;image=https://cdn4.iconfinder.com/data/icons/logos-brands-5/24/netlify-128.png" parent="1" vertex="1">
          <mxGeometry x="-140.00000000000003" y="410" width="128" height="128" as="geometry" />
        </mxCell>
        <mxCell id="6PkHTMjWLneeFWRP05JA-4" value="" style="outlineConnect=0;dashed=0;verticalLabelPosition=bottom;verticalAlign=top;align=center;html=1;shape=mxgraph.aws3.cloudfront;fillColor=#F58536;gradientColor=none;" parent="1" vertex="1">
          <mxGeometry x="349.65" y="170" width="76.5" height="93" as="geometry" />
        </mxCell>
        <mxCell id="6PkHTMjWLneeFWRP05JA-5" value="" style="points=[];aspect=fixed;html=1;align=center;shadow=0;dashed=0;image;image=img/lib/allied_telesis/computer_and_terminals/Personal_Computer_with_Server.svg;" parent="1" vertex="1">
          <mxGeometry x="347.44999999999993" y="-90" width="62.400000000000006" height="62.400000000000006" as="geometry" />
        </mxCell>
        <mxCell id="o_3VUVXK76rTgMvFCfvZ-1" value="" style="outlineConnect=0;fontColor=#232F3E;gradientColor=none;fillColor=#232F3E;strokeColor=none;dashed=0;verticalLabelPosition=bottom;verticalAlign=top;align=center;html=1;fontSize=12;fontStyle=0;aspect=fixed;pointerEvents=1;shape=mxgraph.aws4.internet_alt22;" vertex="1" parent="1">
          <mxGeometry x="347.15" y="50" width="78" height="78" as="geometry" />
        </mxCell>
        <mxCell id="o_3VUVXK76rTgMvFCfvZ-2" value="" style="shape=singleArrow;direction=south;whiteSpace=wrap;html=1;" vertex="1" parent="1">
          <mxGeometry x="351.15" y="610" width="60" height="100" as="geometry" />
        </mxCell>
        <mxCell id="o_3VUVXK76rTgMvFCfvZ-3" value="" style="shape=flexArrow;endArrow=classic;startArrow=classic;html=1;" edge="1" parent="1">
          <mxGeometry width="100" height="100" relative="1" as="geometry">
            <mxPoint x="70" y="489.5" as="sourcePoint" />
            <mxPoint x="170" y="489.5" as="targetPoint" />
          </mxGeometry>
        </mxCell>
        <mxCell id="o_3VUVXK76rTgMvFCfvZ-4" value="Github authentication" style="text;html=1;align=center;verticalAlign=middle;resizable=0;points=[];autosize=1;strokeColor=none;" vertex="1" parent="1">
          <mxGeometry x="60" y="376" width="130" height="20" as="geometry" />
        </mxCell>
        <mxCell id="o_3VUVXK76rTgMvFCfvZ-5" value="www.website/admin" style="text;html=1;align=center;verticalAlign=middle;resizable=0;points=[];autosize=1;strokeColor=none;" vertex="1" parent="1">
          <mxGeometry x="-150" y="336" width="120" height="20" as="geometry" />
        </mxCell>
        <mxCell id="o_3VUVXK76rTgMvFCfvZ-6" value="" style="shape=doubleArrow;whiteSpace=wrap;html=1;rotation=90;" vertex="1" parent="1">
          <mxGeometry x="328.65" y="316" width="100" height="60" as="geometry" />
        </mxCell>
      </root>
    </mxGraphModel>
  </diagram>
</mxfile>
